<?xml version="1.0" encoding="utf-8"?>
<!-- Generator: Adobe Illustrator 19.2.1, SVG Export Plug-In . SVG Version: 6.00 Build 0)  -->
<svg version="1.1" id="Layer_1" xmlns="http://www.w3.org/2000/svg" xmlns:xlink="http://www.w3.org/1999/xlink" x="0px" y="0px"
	 viewBox="0 0 125 125" style="enable-background:new 0 0 125 125;" xml:space="preserve">
<path d="M107.2,62.5c0,24.7-20,44.7-44.7,44.7c-24.7,0-44.7-20-44.7-44.7s20-44.7,44.7-44.7C87.2,17.8,107.2,37.8,107.2,62.5z
	 M62.5,28.5c-18.8,0-34,15.2-34,34c0,18.8,15.2,34,34,34s34-15.2,34-34C96.5,43.7,81.3,28.5,62.5,28.5z M67.8,66.3
	C66.6,68,64.7,69,62.5,69c-0.7,0-1.4-0.1-2-0.3c-2.6-0.8-4.5-3.3-4.5-6.2c0-2.9,1.9-5.4,4.5-6.2c0.6-0.2,1.3-0.3,2-0.3
	c2.2,0,4.1,1.1,5.3,2.7l5.3-3.8l5.3-3.8c-3.6-4.9-9.3-8.1-15.9-8.1c-2.1,0-4.1,0.3-6.1,1c-7.9,2.5-13.6,9.9-13.6,18.7
	c0,8.7,5.7,16.1,13.6,18.7c1.9,0.6,3.9,1,6.1,1c6.5,0,12.3-3.2,15.9-8.1l-5.3-3.8L67.8,66.3z"/>
</svg>
