<?xml version="1.0" encoding="utf-8"?>
<!-- Generator: Adobe Illustrator 19.2.1, SVG Export Plug-In . SVG Version: 6.00 Build 0)  -->
<svg version="1.1" id="Layer_1" xmlns="http://www.w3.org/2000/svg" xmlns:xlink="http://www.w3.org/1999/xlink" x="0px" y="0px"
	 viewBox="0 0 125 125" style="enable-background:new 0 0 125 125;" xml:space="preserve">
<g>
	<g>
		<path d="M108.3,104.6H16.5c-1,0-2.1-0.8-2.1-2.1v-80c0-1,0.8-2.1,2.1-2.1h92c1,0,2.1,0.8,2.1,2.1v80
			C110.4,103.7,109.6,104.6,108.3,104.6z M18.3,100.6h87.9v-76H18.3V100.6z"/>
	</g>
	<g>
		<path d="M108.3,40H16.5c-1,0-2.1-0.8-2.1-2.1c0-1.2,0.8-2.1,2.1-2.1h92c1,0,2.1,0.8,2.1,2.1C110.6,39.1,109.6,40,108.3,40z"/>
	</g>
	<g>
		<circle cx="24.2" cy="30.2" r="2.7"/>
	</g>
	<g>
		<circle cx="32.7" cy="30.2" r="2.7"/>
	</g>
	<g>
		<path d="M100.8,33.1H45.4c-1,0-2.1-0.8-2.1-2.1c0-1,0.8-2.1,2.1-2.1H101c1,0,2.1,0.8,2.1,2.1C102.9,32.1,102.1,33.1,100.8,33.1z"
			/>
	</g>
</g>
</svg>
