<?xml version="1.0" encoding="utf-8"?>
<!-- Generator: Adobe Illustrator 19.2.1, SVG Export Plug-In . SVG Version: 6.00 Build 0)  -->
<svg version="1.1" id="Layer_1" xmlns="http://www.w3.org/2000/svg" xmlns:xlink="http://www.w3.org/1999/xlink" x="0px" y="0px"
	 viewBox="0 0 125 125" style="enable-background:new 0 0 125 125;" xml:space="preserve">
<path d="M110.4,98.7c-0.3-2-0.7-5.3-0.7-9.9s0.4-7.9,0.7-9.9c0.1-0.6-0.1-1.2-0.5-1.7c-0.4-0.5-1-0.7-1.7-0.7H73.5V65.2
	c4-4,0.4-9.8,3.9-19c3.8-10,5.7-12.5,5.7-18.8c0-10.4-10.2-15-20.6-15s-20.6,4.6-20.6,15c0,6.2,2,8.8,5.8,18.8
	c3.5,9.2-0.1,15,3.9,19v11.3H16.8c-0.7,0-1.3,0.2-1.7,0.7c-0.4,0.5-0.6,1.1-0.5,1.7c0.3,2,0.7,5.2,0.7,9.9s-0.4,7.9-0.7,9.9
	c-0.1,0.6,0.1,1.4,0.5,1.9s1,0.9,1.7,0.9h4.4l1.2,9.2c0.2,1.1,1.1,1.8,2.2,1.8h75.6c1.1,0,2-0.7,2.2-1.8l1.2-9.2h4.4
	c0.7,0,1.3-0.4,1.7-0.9S110.5,99.3,110.4,98.7z M48.1,27.5c0-2.7,1.1-4.7,3.3-6.2c2.5-1.7,6.8-2.6,11.1-2.6s8.5,0.9,11.1,2.6
	c2.3,1.5,3.3,3.5,3.3,6.2c0,4.4-1.3,6.1-4,13.4c-0.4,1-0.8,2-1.2,3.1c-2.1,5.5-2,10-2,13.3c0,1.2,0,3-0.2,3.4c0,0-0.1,0.1-0.3,0.3
	c-0.6,0.3-2.9,0.9-6.6,0.9s-6-0.6-6.6-0.9c-0.3-0.2-0.3-0.3-0.3-0.3c-0.2-0.4-0.2-2.2-0.2-3.4c0-3.3,0-7.8-2-13.3
	c-0.4-1.1-0.8-2.2-1.2-3.1C49.4,33.6,48.1,31.9,48.1,27.5z M57.5,67.9c1.5,0.1,3.1,0.2,5,0.2c1.9,0,3.5-0.1,5-0.2v8.6h-10V67.9z
	 M21.3,82.5h29.9h22.5h29.9c-0.1,1.9-0.2,4.3-0.2,6.5s0.1,4.5,0.2,6.5H21.3c0.1-2,0.2-4.3,0.2-6.5S21.5,84.4,21.3,82.5z M96.8,106.5
	H28.2l-0.6-5h69.8L96.8,106.5z"/>
</svg>
